<svg xmlns="http://www.w3.org/2000/svg" width="24" height="24" viewBox="0 0 24 24"><path d="M14 19h-4c-.276 0-.5.224-.5.5s.224.5.5.5h4c.276 0 .5-.224.5-.5s-.224-.5-.5-.5zm0 2h-4c-.276 0-.5.224-.5.5s.224.5.5.5h4c.276 0 .5-.224.5-.5s-.224-.5-.5-.5zm.25 2h-4.5l1.188.782c.154.138.38.218.615.218h.895c.234 0 .461-.08.615-.218l1.187-.782zm3.75-13.799c0 3.569-3.214 5.983-3.214 8.799h-1.989c-.003-1.858.87-3.389 1.721-4.867.761-1.325 1.482-2.577 1.482-3.932 0-2.592-2.075-3.772-4.003-3.772-1.925 0-3.997 1.18-3.997 3.772 0 1.355.721 2.607 1.482 3.932.851 1.478 1.725 3.009 1.72 4.867h-1.988c0-2.816-3.214-5.23-3.214-8.799 0-3.723 2.998-5.772 5.997-5.772 3.001 0 6.003 2.051 6.003 5.772zm4-.691v1.372h"/></svg>